<?xml version="1.0" encoding="utf-8"?>
<!-- Generator: Adobe Illustrator 25.0.1, SVG Export Plug-In . SVG Version: 6.00 Build 0)  -->
<svg version="1.1" id="Layer_1" xmlns="http://www.w3.org/2000/svg" xmlns:xlink="http://www.w3.org/1999/xlink" x="0px" y="0px"
	 viewBox="0 0 105.9 20.6" style="enable-background:new 0 0 105.9 20.6;" xml:space="preserve">
<style type="text/css">
	.st0{fill:url(#SVGID_1_);}
	.st1{fill:#269CD9;}
</style>
<g>
	<g>
		<linearGradient id="SVGID_1_" gradientUnits="userSpaceOnUse" x1="17.1342" y1="20.5845" x2="17.1342" y2="3.3413">
			<stop  offset="0" style="stop-color:#40D3E3"/>
			<stop  offset="1" style="stop-color:#269CD9"/>
		</linearGradient>
		<path class="st0" d="M34.3,3.4l-6.9,7.8c0,0,0,0,0,0H19c0,0-0.1,0,0-0.1L26,3.4c0,0,0,0,0,0L34.3,3.4C34.3,3.3,34.3,3.4,34.3,3.4z
			 M16.8,11.2C16.8,11.2,16.8,11.2,16.8,11.2l6.9-7.8c0,0,0-0.1,0-0.1h-8.2c0,0,0,0,0,0l-7.1,7.8c0,0,0,0.1,0,0.1H16.8z M17.7,12.7
			C17.7,12.7,17.7,12.7,17.7,12.7l-7.1,7.8c0,0,0,0.1,0,0.1H19c0,0,0,0,0,0l6.9-7.8c0,0,0-0.1,0-0.1H17.7z M15.3,12.7H7.1
			c0,0,0,0,0,0L0,20.5c0,0,0,0.1,0,0.1h8.4c0,0,0,0,0,0L15.3,12.7C15.4,12.8,15.3,12.7,15.3,12.7z"/>
		<path class="st1" d="M39.4,2.9l-1.5-2.5C37.8,0.2,37.5,0,37.2,0H16.4c-0.5,0-0.9,0.4-0.9,0.9s0.4,0.9,0.9,0.9h20.3l0.9,1.5
			L24.4,19c-0.3,0.4-0.3,0.9,0.1,1.2c0.2,0.1,0.4,0.2,0.6,0.2c0.2,0,0.5-0.1,0.7-0.3l1.8-2.1l2.1,2.4c0.2,0.2,0.4,0.3,0.7,0.3
			c0.2,0,0.4-0.1,0.6-0.2c0.4-0.3,0.4-0.9,0.1-1.2l-2.2-2.6L39.3,3.9C39.6,3.6,39.6,3.2,39.4,2.9z"/>
	</g>
	<g>
		<path class="st1" d="M52.1,16.9c-0.1-0.4-0.3-0.8-0.4-1.3s-0.3-0.9-0.5-1.3h-4.7c-0.2,0.4-0.3,0.9-0.5,1.3s-0.3,0.9-0.4,1.3h-2.8
			c0.4-1.3,0.9-2.5,1.3-3.6c0.4-1.1,0.8-2.1,1.2-3.1s0.8-1.9,1.1-2.7c0.4-0.9,0.8-1.7,1.2-2.5h2.5c0.4,0.8,0.8,1.7,1.2,2.5
			s0.8,1.8,1.2,2.7s0.8,2,1.2,3.1c0.4,1.1,0.8,2.3,1.3,3.6H52.1z M48.9,7.6c-0.1,0.2-0.1,0.4-0.3,0.7c-0.1,0.3-0.2,0.6-0.4,1
			c-0.1,0.4-0.3,0.8-0.5,1.3c-0.2,0.5-0.4,1-0.6,1.5h3.4c-0.2-0.5-0.4-1-0.5-1.5c-0.2-0.5-0.3-0.9-0.5-1.3c-0.2-0.4-0.3-0.7-0.4-1
			C49.1,8.1,49,7.8,48.9,7.6z"/>
		<path class="st1" d="M64.1,16.6c-0.4,0.1-1,0.2-1.7,0.4c-0.7,0.1-1.4,0.2-2.2,0.2c-0.8,0-1.4-0.1-1.9-0.3
			c-0.5-0.2-0.9-0.5-1.2-0.9c-0.3-0.4-0.5-0.8-0.6-1.3c-0.1-0.5-0.2-1.1-0.2-1.7v-5h2.6v4.7c0,0.8,0.1,1.4,0.3,1.8
			c0.2,0.4,0.6,0.6,1.2,0.6c0.2,0,0.4,0,0.6,0c0.2,0,0.4,0,0.6-0.1v-7h2.6V16.6z"/>
		<path class="st1" d="M72,10.1c-0.2-0.1-0.5-0.1-0.8-0.2s-0.6-0.1-1-0.1c-0.2,0-0.4,0-0.6,0c-0.2,0-0.4,0.1-0.5,0.1v6.9h-2.6V8.3
			c0.5-0.2,1-0.3,1.6-0.5c0.6-0.1,1.3-0.2,2.1-0.2c0.1,0,0.3,0,0.5,0c0.2,0,0.4,0,0.6,0.1c0.2,0,0.4,0.1,0.6,0.1
			c0.2,0,0.4,0.1,0.5,0.1L72,10.1z"/>
		<path class="st1" d="M76.8,7.6c0.8,0,1.4,0.1,1.9,0.3C79.2,8,79.6,8.3,80,8.6s0.5,0.7,0.6,1.2c0.1,0.5,0.2,1,0.2,1.5v5.3
			c-0.4,0.1-0.9,0.2-1.5,0.3s-1.4,0.2-2.4,0.2c-0.6,0-1.1-0.1-1.6-0.2c-0.5-0.1-0.9-0.3-1.2-0.5c-0.3-0.2-0.6-0.5-0.8-0.9
			S73,14.6,73,14.1c0-0.5,0.1-1,0.3-1.3c0.2-0.4,0.5-0.7,0.9-0.9c0.4-0.2,0.8-0.4,1.2-0.5c0.5-0.1,0.9-0.1,1.4-0.1
			c0.3,0,0.6,0,0.9,0s0.5,0.1,0.6,0.1v-0.2c0-0.4-0.1-0.8-0.4-1.1c-0.3-0.3-0.7-0.4-1.4-0.4c-0.4,0-0.9,0-1.3,0.1
			c-0.4,0.1-0.8,0.2-1.1,0.3L73.8,8c0.1,0,0.3-0.1,0.6-0.1c0.2-0.1,0.5-0.1,0.7-0.1c0.3,0,0.5-0.1,0.8-0.1
			C76.3,7.6,76.5,7.6,76.8,7.6z M77.1,15.1c0.3,0,0.5,0,0.7,0c0.2,0,0.4,0,0.6-0.1v-1.9c-0.1,0-0.3,0-0.5-0.1c-0.2,0-0.4,0-0.6,0
			c-0.2,0-0.5,0-0.7,0c-0.2,0-0.4,0.1-0.6,0.2c-0.2,0.1-0.3,0.2-0.4,0.3s-0.1,0.3-0.1,0.5c0,0.4,0.1,0.7,0.4,0.8
			C76.2,15,76.6,15.1,77.1,15.1z"/>
		<path class="st1" d="M85.7,15c0.5,0,0.8,0,1-0.1c0.2-0.1,0.3-0.3,0.3-0.5c0-0.2-0.1-0.4-0.4-0.5c-0.3-0.2-0.6-0.3-1.2-0.5
			c-0.4-0.1-0.8-0.3-1.1-0.5s-0.6-0.4-0.8-0.6c-0.2-0.2-0.4-0.5-0.5-0.8c-0.1-0.3-0.2-0.7-0.2-1.1c0-0.8,0.3-1.5,0.9-2
			c0.6-0.5,1.5-0.7,2.6-0.7c0.6,0,1.1,0,1.6,0.1c0.5,0.1,0.9,0.2,1.2,0.3l-0.4,2c-0.3-0.1-0.6-0.2-1-0.3c-0.4-0.1-0.7-0.1-1.2-0.1
			c-0.8,0-1.2,0.2-1.2,0.7c0,0.1,0,0.2,0.1,0.3c0,0.1,0.1,0.2,0.2,0.2c0.1,0.1,0.2,0.2,0.4,0.2c0.2,0.1,0.4,0.2,0.7,0.3
			c0.6,0.2,1,0.4,1.4,0.6c0.4,0.2,0.7,0.4,0.9,0.7c0.2,0.2,0.4,0.5,0.4,0.8c0.1,0.3,0.1,0.6,0.1,1c0,0.9-0.3,1.6-1,2
			c-0.7,0.5-1.6,0.7-2.8,0.7c-0.8,0-1.5-0.1-2-0.2c-0.5-0.1-0.9-0.3-1.1-0.3l0.4-2.1c0.4,0.2,0.9,0.3,1.3,0.4
			C84.8,15,85.3,15,85.7,15z"/>
		<path class="st1" d="M99.9,12.3c0,0.7-0.1,1.4-0.3,2c-0.2,0.6-0.5,1.1-0.9,1.5c-0.4,0.4-0.9,0.7-1.4,1c-0.5,0.2-1.2,0.3-1.8,0.3
			c-0.7,0-1.3-0.1-1.8-0.3c-0.5-0.2-1-0.6-1.4-1c-0.4-0.4-0.7-0.9-0.9-1.5c-0.2-0.6-0.3-1.2-0.3-2c0-0.7,0.1-1.4,0.3-1.9
			c0.2-0.6,0.5-1.1,0.9-1.5c0.4-0.4,0.9-0.7,1.4-1c0.5-0.2,1.1-0.3,1.8-0.3c0.7,0,1.3,0.1,1.8,0.3c0.5,0.2,1,0.6,1.4,1
			c0.4,0.4,0.7,0.9,0.9,1.5C99.8,11,99.9,11.6,99.9,12.3z M97.3,12.3c0-0.8-0.2-1.4-0.5-1.9c-0.3-0.5-0.8-0.7-1.4-0.7
			c-0.6,0-1,0.2-1.4,0.7c-0.3,0.5-0.5,1.1-0.5,1.9s0.2,1.4,0.5,1.9c0.3,0.5,0.8,0.7,1.4,0.7c0.6,0,1-0.2,1.4-0.7
			C97.2,13.8,97.3,13.1,97.3,12.3z"/>
		<path class="st1" d="M105.5,17c-0.7,0-1.4-0.1-1.8-0.2s-0.8-0.4-1.1-0.6c-0.3-0.3-0.5-0.6-0.6-1c-0.1-0.4-0.1-0.8-0.1-1.3v-10
			l2.6-0.4v9.9c0,0.2,0,0.4,0.1,0.6c0,0.2,0.1,0.3,0.2,0.5c0.1,0.1,0.2,0.2,0.4,0.3c0.2,0.1,0.4,0.1,0.7,0.2L105.5,17z"/>
	</g>
</g>
</svg>
